<?xml version="1.0" encoding="utf-8"?>
<!-- Generator: Adobe Illustrator 18.0.0, SVG Export Plug-In . SVG Version: 6.00 Build 0)  -->
<!DOCTYPE svg PUBLIC "-//W3C//DTD SVG 1.1//EN" "http://www.w3.org/Graphics/SVG/1.1/DTD/svg11.dtd">
<svg version="1.1" id="Layer_1" xmlns="http://www.w3.org/2000/svg" xmlns:xlink="http://www.w3.org/1999/xlink" x="0px" y="0px"
	 viewBox="0 0 20 20" enable-background="new 0 0 20 20" xml:space="preserve">
<circle fill="#FFFFFF" cx="10" cy="10" r="10"/>
<g>
	<path fill="#FFFFFF" d="M8.2,4.5C6.7,4.9,5.4,6,4.7,7.4c-0.2,0.5-0.4,1-0.5,1.5c-0.3,1.3-0.1,2.6,0.5,3.8c0.4,0.8,1,1.4,1.6,2
		c0.6,0.5,1.4,0.9,2.2,1.1c1,0.3,2.1,0.3,3.1,0c0.9-0.2,1.8-0.6,2.5-1.2c0.7-0.7,1.3-1.5,1.5-2.4c0.3-1,0.3-2.1,0.2-3.1
		c-1.9,0-3.8,0-5.7,0c0,0.8,0,1.5,0,2.3c1.1,0,2.2,0,3.3,0c-0.1,0.7-0.6,1.4-1.2,1.8c-0.4,0.3-0.9,0.4-1.3,0.5c-0.5,0.1-1,0.1-1.4,0
		c-0.5-0.1-0.9-0.3-1.3-0.6c-0.6-0.4-1.1-1.1-1.4-1.8c-0.3-0.7-0.3-1.5,0-2.3c0.2-0.5,0.5-1,0.9-1.4c0.5-0.5,1.1-0.8,1.8-1
		c0.6-0.1,1.2-0.1,1.8,0.1c0.5,0.1,0.9,0.4,1.3,0.7c0.4-0.4,0.7-0.7,1.1-1.1c0.2-0.2,0.4-0.4,0.6-0.6c-0.6-0.5-1.2-0.9-1.9-1.2
		C10.9,4,9.5,4,8.2,4.5z"/>
	<g>
		<path fill="#EA4335" d="M8.2,4.5c1.3-0.4,2.8-0.4,4.1,0c0.7,0.3,1.4,0.7,1.9,1.2C14,5.9,13.8,6,13.6,6.2c-0.4,0.4-0.7,0.7-1.1,1.1
			c-0.4-0.3-0.8-0.6-1.3-0.7C10.6,6.4,10,6.4,9.4,6.5C8.7,6.6,8.1,7,7.6,7.5C7.2,7.9,6.9,8.3,6.7,8.9c-0.7-0.5-1.3-1-2-1.5
			C5.4,6,6.7,4.9,8.2,4.5z"/>
	</g>
	<g>
		<path fill="#FBBC05" d="M4.2,8.8c0.1-0.5,0.3-1,0.5-1.5c0.7,0.5,1.3,1,2,1.5c-0.3,0.7-0.3,1.5,0,2.3c-0.7,0.5-1.3,1-2,1.5
			C4.1,11.5,4,10.1,4.2,8.8z"/>
	</g>
	<g>
		<path fill="#4285F4" d="M10.1,8.9c1.9,0,3.8,0,5.7,0C16,9.9,16,11,15.7,12c-0.3,0.9-0.8,1.8-1.5,2.4c-0.6-0.5-1.3-1-1.9-1.4
			c0.6-0.4,1.1-1.1,1.2-1.8c-1.1,0-2.2,0-3.3,0C10.1,10.4,10.1,9.7,10.1,8.9z"/>
	</g>
	<g>
		<path fill="#34A853" d="M4.7,12.6c0.7-0.5,1.3-1,2-1.5c0.3,0.7,0.7,1.4,1.4,1.8c0.4,0.3,0.9,0.5,1.3,0.6c0.5,0.1,1,0.1,1.4,0
			c0.5-0.1,0.9-0.2,1.3-0.5c0.6,0.5,1.3,1,1.9,1.4c-0.7,0.6-1.6,1-2.5,1.2c-1,0.2-2.1,0.2-3.1,0c-0.8-0.2-1.5-0.6-2.2-1.1
			C5.7,14.1,5.1,13.4,4.7,12.6z"/>
	</g>
</g>
</svg>
